<svg id="Calque_1" data-name="Calque 1" xmlns="http://www.w3.org/2000/svg" viewBox="0 0 159.3 121.37">
  <path fill="currentColor" class="cls-1" d="M1027,1400.77a11.33,11.33,0,0,0-7.54,19.83l-33.38,53.22a11.24,11.24,0,0,0-12.91,2.68l-34.41-21.79a11.28,11.28,0,0,0,1-4.63,11.38,11.38,0,1,0-18.8,8.56l-26.15,41.63a11.65,11.65,0,1,0,3.19,2.05l26.19-41.68a11.22,11.22,0,0,0,12.45-2.77l34.43,21.8a11.38,11.38,0,1,0,18.17-3.74l33.41-53.27A11.38,11.38,0,1,0,1027,1400.77Zm-129,110a7.59,7.59,0,1,1-7.59-7.59A7.6,7.6,0,0,1,898.09,1510.77Zm30.34-53.1a7.59,7.59,0,1,1,7.59-7.59A7.6,7.6,0,0,1,928.43,1457.66Zm53.1,34.14a7.59,7.59,0,1,1,7.59-7.59A7.6,7.6,0,0,1,981.53,1491.8Zm45.51-72.06a7.59,7.59,0,1,1,7.59-7.59A7.6,7.6,0,0,1,1027,1419.74Z" transform="translate(-879.12 -1400.77)"/>
</svg>
